<?xml version="1.0" encoding="utf-8"?>
<!-- Generator: Adobe Illustrator 26.0.3, SVG Export Plug-In . SVG Version: 6.00 Build 0)  -->
<svg version="1.2" baseProfile="tiny" id="g-gas_prices-Gas-Desktop-Interactions-img" xmlns="http://www.w3.org/2000/svg" xmlns:xlink="http://www.w3.org/1999/xlink"
	 x="0px" y="0px" viewBox="0 0 839.655 496.53" overflow="visible" xml:space="preserve">
<g>
	
		<path id="Path-1" style="opacity:0.91;" fill="none" stroke="#2E2E2E" stroke-width="2" stroke-linecap="round" stroke-linejoin="round" d="
		M101.802,379.186c0.95,0,1.9,0,2.85,0c0.858,0,1.716-3.325,2.574-6.243c0.95-3.231,1.9-11.142,2.85-12.774
		c0.919-1.579,1.839-2.368,2.758-2.368c0.95,0,1.9,0.928,2.85,1.076c0.919,0.144,1.839,0.215,2.758,0.215
		c0.95,0,1.9-2.225,2.85-2.655s1.9-0.389,2.85-0.646c0.919-0.248,1.839-0.499,2.758-0.861c0.95-0.374,1.9-1.116,2.85-1.363
		c0.919-0.239,1.839-0.12,2.758-0.359c0.95-0.247,1.9-0.765,2.85-2.296c0.95-1.531,1.9-5.262,2.85-7.176
		c0.858-1.729,1.716-4.019,2.574-4.019c0.95,0,1.9,1.865,2.85,3.373c0.919,1.459,1.839,3.665,2.758,5.454
		c0.95,1.849,1.9,5.454,2.85,5.454c0.919,0,1.839-0.191,2.758-0.574c0.95-0.395,1.9-3.791,2.85-7.176s1.9-13.132,2.85-13.132
		c0.919,0,1.839,4.128,2.758,5.956c0.95,1.89,1.9,3.629,2.85,5.167c0.919,1.488,1.839,3.947,2.758,3.947
		c0.95,0,1.9-0.993,2.85-2.081s1.9-2.913,2.85-4.449c0.889-1.437,1.778-3.337,2.666-4.449c0.95-1.189,1.9-0.765,2.85-2.296
		c0.919-1.482,1.839-12.608,2.758-16.577c0.95-4.102,1.9-7.32,2.85-7.32c0.919,0,1.839,3.728,2.758,5.31
		c0.95,1.635,1.9,2.847,2.85,4.306c0.95,1.459,1.9,4.449,2.85,4.449c0.919,0,1.839-6.852,2.758-7.176
		c0.95-0.335,1.9-0.502,2.85-0.502c0.919,0,1.839,4.122,2.758,5.813c0.95,1.747,1.9,4.449,2.85,4.449c0.95,0,1.9-0.454,2.85-1.363
		c0.858-0.821,1.716-4.192,2.574-7.32c0.95-3.463,1.9-11.78,2.85-12.917c0.919-1.1,1.839-1.651,2.758-1.651
		c0.95,0,1.9,0.718,2.85,0.718c0.919,0,1.839-8.644,2.758-12.558c0.95-4.045,1.9-3.756,2.85-11.267
		c0.95-7.511,1.9-40.976,2.85-40.976c0.919,0,1.839,16.315,2.758,25.619c0.95,9.614,1.9,27.086,2.85,31.288
		c0.919,4.066,1.839,6.1,2.758,6.1c0.95,0,1.9-13.563,2.85-13.563c0.95,0,1.9,5.31,2.85,5.31c0.858,0,1.716-1.34,2.574-4.019
		c0.95-2.966,1.9-18.748,2.85-26.48c0.919-7.483,1.839-19.098,2.758-19.376c0.95-0.287,1.9-0.144,2.85-0.431
		c0.919-0.278,1.839-5.956,2.758-5.956c0.95,0,1.9,1.818,2.85,5.454c0.95,3.636,1.9,17.971,2.85,27.7
		c0.919,9.415,1.839,27.693,2.758,29.638c0.95,2.009,1.9,3.014,2.85,3.014c0.919,0,1.839-10.19,2.758-10.19
		c0.95,0,1.9,1.124,2.85,2.153s1.9,4.019,2.85,4.019c0.858,0,1.716-17.176,2.574-23.969c0.95-7.52,1.9-12.177,2.85-18.156
		c0.919-5.786,1.839-17.151,2.758-17.151c0.95,0,1.9,0.048,2.85,0.144c0.919,0.093,1.839,3.201,2.758,6.459
		c0.95,3.366,1.9,10.262,2.85,13.635c0.95,3.373,1.9,6.602,2.85,6.602c0.919,0,1.839-0.55,2.758-1.651
		c0.95-1.137,1.9-19.789,2.85-21.816c0.919-1.962,1.839-2.228,2.758-2.942c0.95-0.739,1.9-1.363,2.85-1.363
		c0.95,0,1.9,3.875,2.85,3.875c0.889,0,1.778-6.358,2.666-10.477c0.95-4.403,1.9-7.639,2.85-15.357
		c0.919-7.469,1.839-21.091,2.758-29.71c0.95-8.906,1.9-22.111,2.85-22.605c0.919-0.478,1.839-0.718,2.758-0.718
		c0.95,0,1.9,15.824,2.85,22.174c0.95,6.351,1.9,6.436,2.85,15.931c0.919,9.189,1.839,23.886,2.758,39.326
		c0.95,15.954,1.9,39.864,2.85,55.329c0.919,14.965,1.839,34.443,2.758,36.527c0.95,2.153,1.9,3.229,2.85,3.229
		c0.95,0,1.9-11.767,2.85-12.774c0.858-0.909,1.716-0.454,2.574-1.363c0.95-1.006,1.9-2.3,2.85-6.387
		c0.919-3.955,1.839-10.235,2.758-17.366c0.95-7.369,1.9-26.408,2.85-26.408c0.919,0,1.839,1.938,2.758,1.938
		c0.95,0,1.9-4.665,2.85-4.665c0.95,0,1.9,1.783,2.85,3.229c0.919,1.4,1.839,5.239,2.758,5.239c0.95,0,1.9-9.831,2.85-9.831
		c0.919,0,1.839,2.153,2.758,2.153c0.95,0,1.9-5.956,2.85-5.956c0.95,0,1.9,2.153,2.85,2.153c0.858,0,1.716-1.64,2.574-2.87
		c0.95-1.363,1.9-3.255,2.85-5.095c0.919-1.781,1.839-5.741,2.758-5.741c0.95,0,1.9,7.986,2.85,8.827
		c0.919,0.813,1.839,0.558,2.758,1.22c0.95,0.684,1.9,1.531,2.85,2.87c0.95,1.34,1.9,5.167,2.85,5.167
		c0.919,0,1.839-8.17,2.758-11.769c0.95-3.719,1.9-6.462,2.85-10.118c0.919-3.538,1.839-8.601,2.758-11.41
		c0.95-2.903,1.9-3.588,2.85-5.526c0.95-1.938,1.9-2.033,2.85-6.1c0.858-3.673,1.716-16.002,2.574-22.246
		c0.95-6.913,1.9-11.127,2.85-16.434c0.919-5.136,1.839-14.927,2.758-14.927c0.95,0,1.9,13.394,2.85,14.927
		c0.919,1.483,1.839,1.808,2.758,2.225c0.95,0.431,1.9,0.215,2.85,0.646c0.95,0.431,1.9,2.412,2.85,5.454
		c0.919,2.944,1.839,9.441,2.758,12.271c0.95,2.924,1.9,2.578,2.85,4.736c0.919,2.089,1.839,7.894,2.758,7.894
		c0.95,0,1.9-5.562,2.85-9.616c0.95-4.055,1.9-10.478,2.85-14.711c0.889-3.96,1.778-7.186,2.666-10.118
		c0.95-3.135,1.9-7.894,2.85-7.894c0.919,0,1.839,6.916,2.758,11.41c0.95,4.644,1.9,16.146,2.85,16.146
		c0.919,0,1.839-0.072,2.758-0.215c0.95-0.148,1.9-12.223,2.85-16.577c0.95-4.354,1.9-9.544,2.85-9.544
		c0.919,0,1.839,1.823,2.758,4.306c0.95,2.565,1.9,7.468,2.85,11.051c0.919,3.467,1.839,8.683,2.758,10.118
		c0.95,1.483,1.9,2.225,2.85,2.225c0.95,0,1.9-16.29,2.85-16.29c0.858,0,1.716,0.55,2.574,1.651c0.95,1.218,1.9,10.315,2.85,10.908
		c0.919,0.574,1.839,0.861,2.758,0.861c0.95,0,1.9-0.431,2.85-1.292c0.919-0.833,1.839-5.896,2.758-6.961
		c0.95-1.1,1.9-1.651,2.85-1.651c0.95,0,1.9,1.818,2.85,5.454c0.919,3.519,1.839,13.991,2.758,16.075
		c0.95,2.153,1.9,3.229,2.85,3.229c0.919,0,1.839-8.827,2.758-8.827c0.95,0,1.9,0.885,2.85,1.148c0.95,0.263,1.9,0.431,2.85,0.431
		c0.858,0,1.716-6.365,2.574-8.611c0.95-2.487,1.9-3.491,2.85-5.167c0.919-1.622,1.839-3.672,2.758-4.736
		c0.95-1.1,1.9-1.651,2.85-1.651c0.919,0,1.839,0.837,2.758,2.512c0.95,1.73,1.9,9.353,2.85,12.845c0.95,3.492,1.9,4.406,2.85,8.109
		c0.919,3.584,1.839,8.681,2.758,13.563c0.95,5.045,1.9,10.027,2.85,16.29c0.919,6.061,1.839,11.822,2.758,20.524
		c0.95,8.992,1.9,31.073,2.85,32.939c0.95,1.866,1.9,2.799,2.85,2.799c0.858,0,1.716-11.002,2.574-12.774
		c0.95-1.961,1.9-0.981,2.85-2.942c0.919-1.898,1.839-13.556,2.758-16.936c0.95-3.492,1.9-4.991,2.85-5.239
		c0.919-0.239,1.839-0.359,2.758-0.359c0.95,0,1.9,9.592,2.85,15.429c0.95,5.837,1.9,14.847,2.85,19.591
		c0.919,4.591,1.839,7.875,2.758,8.755c0.95,0.909,1.9,0.454,2.85,1.363c0.919,0.88,1.839,2.52,2.758,4.665
		c0.95,2.216,1.9,5.143,2.85,8.54c0.95,3.397,1.9,11.841,2.85,11.841c0.889,0,1.778-1.665,2.666-4.808
		c0.95-3.359,1.9-10.691,2.85-15.357c0.919-4.515,1.839-9.864,2.758-12.271c0.95-2.488,1.9-3.732,2.85-3.732
		c0.919,0,1.839,2.728,2.758,4.449c0.95,1.779,1.9,6.1,2.85,6.1s1.9-0.848,2.85-1.435c0.919-0.568,1.839-0.67,2.758-2.009
		c0.95-1.384,1.9-5.408,2.85-7.535c0.919-2.059,1.839-3.15,2.758-5.095c0.95-2.009,1.9-6.817,2.85-6.817s1.9,3.459,2.85,4.952
		c0.858,1.348,1.716,3.66,2.574,3.66c0.95,0,1.9-5.664,2.85-5.813c0.919-0.144,1.839-0.215,2.758-0.215c0.95,0,1.9,1.155,2.85,1.938
		c0.919,0.757,1.839,2.655,2.758,2.655c0.95,0,1.9-1.722,2.85-5.167c0.95-3.445,1.9-23.897,2.85-23.897
		c0.919,0,1.839,14.568,2.758,14.568c0.95,0,1.9-2.727,2.85-2.727c0.919,0,1.839,3.66,2.758,3.66c0.95,0,1.9-3.241,2.85-4.736
		c0.95-1.495,1.9-4.234,2.85-4.234c0.858,0,1.716,4.88,2.575,4.88c0.95,0,1.9-7.858,2.85-12.343
		c0.919-4.341,1.839-14.065,2.758-14.065c0.95,0,1.9,1.367,2.85,2.296c0.919,0.899,1.839,2.44,2.758,3.158
		c0.95,0.741,1.9,0.813,2.85,1.148c0.95,0.335,1.9,0.861,2.85,0.861c0.919,0,1.839-0.072,2.758-0.072c0.95,0,1.9,7.549,2.85,12.2
		c0.919,4.5,1.839,11.347,2.758,15.142c0.95,3.921,1.9,6.841,2.85,7.75c0.95,0.909,1.9,1.363,2.85,1.363
		c0.858,0,1.716-8.145,2.574-12.845c0.95-5.204,1.9-12.832,2.85-17.151c0.919-4.18,1.839-8.611,2.758-8.611
		c0.95,0,1.9,9.688,2.85,9.688c0.919,0,1.839-1.005,2.758-1.005c0.95,0,1.9,3.373,2.85,5.741c0.95,2.368,1.9,6.401,2.85,8.468
		c0.919,2,1.839,3.875,2.758,3.875c0.95,0,1.9-1.292,2.85-1.292c0.919,0,1.839,0.718,2.758,0.718c0.95,0,1.9-2.87,2.85-2.87
		s1.9,4.888,2.85,8.253c0.889,3.147,1.778,6.347,2.666,11.051c0.95,5.029,1.9,16.362,2.85,18.586
		c0.919,2.153,1.839,3.229,2.758,3.229c0.95,0,1.9-4.342,2.85-5.884c0.919-1.493,1.839-3.301,2.758-3.301
		c0.95,0,1.9,0.646,2.85,0.646c0.95,0,1.9-0.574,2.85-0.574c0.919,0,1.839,0.12,2.758,0.359c0.95,0.247,1.9,2.296,2.85,2.296
		c0.919,0,1.839-4.161,2.758-7.463c0.95-3.412,1.9-8.611,2.85-12.845c0.95-4.234,1.9-7.135,2.85-12.558
		c0.858-4.899,1.716-17.725,2.574-17.725c0.95,0,1.9,0,2.85,0c0.919,0,1.839-9.265,2.758-12.128c0.95-2.958,1.9-3.368,2.85-5.095
		c0.919-1.671,1.839-4.262,2.758-5.095c0.95-0.861,1.9-0.431,2.85-1.292s1.9-2.743,2.85-5.023c0.919-2.207,1.839-5.457,2.758-8.324
		c0.95-2.963,1.9-9.186,2.85-9.186c0.919,0,1.839,2.474,2.758,3.445c0.95,1.003,1.9,2.44,2.85,2.44c0.95,0,1.9-5.43,2.85-16.29
		c0.858-9.809,1.716-28.55,2.574-47.291"/>
</g>
<style>
#g-gas_prices-Gas-Desktop-Interactions-img rect, #g-gas_prices-Gas-Desktop-Interactions-img circle, #g-gas_prices-Gas-Desktop-Interactions-img path, #g-gas_prices-Gas-Desktop-Interactions-img line, #g-gas_prices-Gas-Desktop-Interactions-img polyline, #g-gas_prices-Gas-Desktop-Interactions-img polygon { vector-effect: non-scaling-stroke; }
</style>
</svg>

