<?xml version="1.0" encoding="utf-8"?>
<!-- Generator: Adobe Illustrator 26.0.3, SVG Export Plug-In . SVG Version: 6.00 Build 0)  -->
<svg version="1.2" baseProfile="tiny" id="g-gas_prices-Gas-mobile-Interactions-img" xmlns="http://www.w3.org/2000/svg" xmlns:xlink="http://www.w3.org/1999/xlink"
	 x="0px" y="0px" viewBox="0 0 464.02 338.101" overflow="visible" xml:space="preserve">
<g>
	
		<path id="Path-2" style="opacity:0.91;" fill="none" stroke="#2E2E2E" stroke-width="2" stroke-linecap="round" stroke-linejoin="round" d="
		M41.323,238.652c0.571,0,1.141,0,1.712,0c0.515,0,1.031-1.997,1.546-3.75c0.571-1.941,1.141-6.692,1.712-7.672
		c0.552-0.948,1.104-1.422,1.657-1.422c0.571,0,1.141,0.557,1.712,0.646c0.552,0.086,1.104,0.129,1.657,0.129
		c0.571,0,1.141-1.336,1.712-1.595c0.571-0.259,1.141-0.234,1.712-0.388c0.552-0.149,1.104-0.3,1.657-0.517
		c0.571-0.225,1.141-0.67,1.712-0.819c0.552-0.144,1.104-0.072,1.657-0.215c0.571-0.148,1.141-0.46,1.712-1.379
		c0.571-0.919,1.141-3.16,1.712-4.31c0.515-1.039,1.031-2.414,1.546-2.414c0.571,0,1.141,1.12,1.712,2.026
		c0.552,0.876,1.104,2.201,1.657,3.276c0.571,1.11,1.141,3.276,1.712,3.276c0.552,0,1.104-0.115,1.657-0.345
		c0.571-0.238,1.141-2.277,1.712-4.31s1.141-7.887,1.712-7.887c0.552,0,1.104,2.479,1.657,3.577c0.571,1.135,1.141,2.18,1.712,3.103
		c0.552,0.894,1.104,2.371,1.657,2.371c0.571,0,1.141-0.596,1.712-1.25c0.571-0.654,1.141-1.75,1.712-2.672
		c0.534-0.863,1.068-2.004,1.601-2.672c0.571-0.714,1.141-0.46,1.712-1.379c0.552-0.89,1.104-7.572,1.657-9.956
		c0.571-2.464,1.141-4.396,1.712-4.396c0.552,0,1.104,2.239,1.657,3.189c0.571,0.982,1.141,1.71,1.712,2.586
		c0.571,0.876,1.141,2.672,1.712,2.672c0.552,0,1.104-4.115,1.657-4.31c0.571-0.201,1.141-0.302,1.712-0.302
		c0.552,0,1.104,2.476,1.657,3.491c0.571,1.049,1.141,2.672,1.712,2.672c0.571,0,1.141-0.273,1.712-0.819
		c0.515-0.493,1.031-2.518,1.546-4.396c0.571-2.08,1.141-7.075,1.712-7.758c0.552-0.661,1.104-0.991,1.657-0.991
		c0.571,0,1.141,0.431,1.712,0.431c0.552,0,1.104-5.191,1.657-7.543c0.571-2.43,1.141-2.256,1.712-6.767
		c0.571-4.511,1.141-24.611,1.712-24.611c0.552,0,1.104,9.799,1.657,15.387c0.571,5.774,1.141,16.268,1.712,18.792
		c0.552,2.442,1.104,3.664,1.657,3.664c0.571,0,1.141-8.146,1.712-8.146c0.571,0,1.141,3.189,1.712,3.189
		c0.515,0,1.031-0.805,1.546-2.414c0.571-1.782,1.141-11.26,1.712-15.904c0.552-4.494,1.104-11.47,1.657-11.637
		c0.571-0.172,1.141-0.086,1.712-0.259c0.552-0.167,1.104-3.577,1.657-3.577c0.571,0,1.141,1.092,1.712,3.276
		c0.571,2.184,1.141,10.794,1.712,16.637c0.552,5.655,1.104,16.633,1.657,17.801c0.571,1.207,1.141,1.81,1.712,1.81
		c0.552,0,1.104-6.12,1.657-6.12c0.571,0,1.141,0.675,1.712,1.293c0.571,0.618,1.141,2.414,1.712,2.414
		c0.515,0,1.031-10.316,1.546-14.396c0.571-4.516,1.141-7.314,1.712-10.905c0.552-3.475,1.104-10.301,1.657-10.301
		c0.571,0,1.141,0.029,1.712,0.086c0.552,0.056,1.104,1.923,1.657,3.879c0.571,2.022,1.141,6.163,1.712,8.189
		c0.571,2.026,1.141,3.965,1.712,3.965c0.552,0,1.104-0.33,1.657-0.991c0.571-0.683,1.141-11.885,1.712-13.103
		c0.552-1.178,1.104-1.338,1.657-1.767c0.571-0.444,1.141-0.819,1.712-0.819s1.141,2.327,1.712,2.327
		c0.534,0,1.068-3.819,1.601-6.293c0.571-2.645,1.141-4.588,1.712-9.224c0.552-4.486,1.104-12.667,1.657-17.844
		c0.571-5.349,1.141-13.28,1.712-13.577c0.552-0.287,1.104-0.431,1.657-0.431c0.571,0,1.141,9.504,1.712,13.318
		c0.571,3.814,1.141,3.865,1.712,9.568c0.552,5.519,1.104,14.346,1.657,23.619c0.571,9.582,1.141,23.943,1.712,33.231
		c0.552,8.988,1.104,20.687,1.657,21.938c0.571,1.293,1.141,1.94,1.712,1.94s1.141-7.068,1.712-7.672
		c0.515-0.546,1.031-0.273,1.546-0.819c0.571-0.604,1.141-1.381,1.712-3.836c0.552-2.375,1.104-6.147,1.657-10.43
		c0.571-4.426,1.141-15.861,1.712-15.861c0.552,0,1.104,1.164,1.657,1.164c0.571,0,1.141-2.802,1.712-2.802
		c0.571,0,1.141,1.071,1.712,1.94c0.552,0.841,1.104,3.146,1.657,3.146c0.571,0,1.141-5.905,1.712-5.905
		c0.552,0,1.104,1.293,1.657,1.293c0.571,0,1.141-3.577,1.712-3.577c0.571,0,1.141,1.293,1.712,1.293
		c0.515,0,1.031-0.985,1.546-1.724c0.571-0.818,1.141-1.955,1.712-3.06c0.552-1.07,1.104-3.448,1.657-3.448
		c0.571,0,1.141,4.797,1.712,5.301c0.552,0.488,1.104,0.335,1.657,0.733c0.571,0.411,1.141,0.919,1.712,1.724
		c0.571,0.805,1.141,3.103,1.712,3.103c0.552,0,1.104-4.907,1.657-7.069c0.571-2.234,1.141-3.881,1.712-6.077
		c0.552-2.125,1.104-5.166,1.657-6.853c0.571-1.744,1.141-2.155,1.712-3.319c0.571-1.164,1.141-1.221,1.712-3.664
		c0.515-2.206,1.031-9.611,1.546-13.361c0.571-4.152,1.141-6.683,1.712-9.87c0.552-3.085,1.104-8.965,1.657-8.965
		c0.571,0,1.141,8.045,1.712,8.965c0.552,0.891,1.104,1.086,1.657,1.336c0.571,0.259,1.141,0.129,1.712,0.388
		c0.571,0.259,1.141,1.449,1.712,3.276c0.552,1.768,1.104,5.67,1.657,7.37c0.571,1.756,1.141,1.548,1.712,2.845
		c0.552,1.254,1.104,4.741,1.657,4.741c0.571,0,1.141-3.34,1.712-5.776c0.571-2.435,1.141-6.293,1.712-8.836
		c0.534-2.378,1.068-4.316,1.601-6.077c0.571-1.883,1.141-4.741,1.712-4.741c0.552,0,1.104,4.154,1.657,6.853
		c0.571,2.789,1.141,9.698,1.712,9.698c0.552,0,1.104-0.043,1.657-0.129c0.571-0.089,1.141-7.342,1.712-9.956
		s1.141-5.732,1.712-5.732c0.552,0,1.104,1.095,1.657,2.586c0.571,1.541,1.141,4.486,1.712,6.638
		c0.552,2.082,1.104,5.215,1.657,6.077c0.571,0.891,1.141,1.336,1.712,1.336s1.141-9.784,1.712-9.784
		c0.515,0,1.031,0.33,1.546,0.991c0.571,0.732,1.141,6.195,1.712,6.551c0.552,0.345,1.104,0.517,1.657,0.517
		c0.571,0,1.141-0.259,1.712-0.776c0.552-0.501,1.104-3.541,1.657-4.181c0.571-0.661,1.141-0.991,1.712-0.991
		s1.141,1.092,1.712,3.276c0.552,2.113,1.104,8.403,1.657,9.655c0.571,1.293,1.141,1.94,1.712,1.94c0.552,0,1.104-5.301,1.657-5.301
		c0.571,0,1.141,0.532,1.712,0.69c0.571,0.158,1.141,0.259,1.712,0.259c0.515,0,1.031-3.823,1.546-5.172
		c0.571-1.494,1.141-2.097,1.712-3.103c0.552-0.974,1.104-2.206,1.657-2.845c0.571-0.66,1.141-0.991,1.712-0.991
		c0.552,0,1.104,0.503,1.657,1.509c0.571,1.039,1.141,5.617,1.712,7.715c0.571,2.098,1.141,2.646,1.712,4.87
		c0.552,2.153,1.104,5.214,1.657,8.146c0.571,3.03,1.141,6.022,1.712,9.784c0.552,3.64,1.104,7.1,1.657,12.327
		c0.571,5.401,1.141,18.663,1.712,19.783s1.141,1.681,1.712,1.681c0.515,0,1.031-6.608,1.546-7.672
		c0.571-1.178,1.141-0.589,1.712-1.767c0.552-1.14,1.104-8.142,1.657-10.172c0.571-2.098,1.141-2.998,1.712-3.146
		c0.552-0.144,1.104-0.215,1.657-0.215c0.571,0,1.141,5.761,1.712,9.267s1.141,8.917,1.712,11.767
		c0.552,2.757,1.104,4.73,1.657,5.258c0.571,0.546,1.141,0.273,1.712,0.819c0.552,0.528,1.104,1.513,1.657,2.802
		c0.571,1.331,1.141,3.089,1.712,5.129s1.141,7.112,1.712,7.112c0.534,0,1.068-1,1.601-2.888c0.571-2.018,1.141-6.421,1.712-9.224
		c0.552-2.712,1.104-5.924,1.657-7.37c0.571-1.494,1.141-2.241,1.712-2.241c0.552,0,1.104,1.638,1.657,2.672
		c0.571,1.068,1.141,3.664,1.712,3.664c0.571,0,1.141-0.509,1.712-0.862c0.552-0.341,1.104-0.402,1.657-1.207
		c0.571-0.831,1.141-3.248,1.712-4.526c0.552-1.236,1.104-1.892,1.657-3.06c0.571-1.207,1.141-4.095,1.712-4.095
		c0.571,0,1.141,2.077,1.712,2.974c0.515,0.81,1.031,2.198,1.546,2.198c0.571,0,1.141-3.402,1.712-3.491
		c0.552-0.086,1.104-0.129,1.657-0.129c0.571,0,1.141,0.694,1.712,1.164c0.552,0.455,1.104,1.595,1.657,1.595
		c0.571,0,1.141-1.034,1.712-3.103c0.571-2.069,1.141-14.353,1.712-14.353c0.552,0,1.104,8.749,1.657,8.749
		c0.571,0,1.141-1.638,1.712-1.638c0.552,0,1.104,2.198,1.657,2.198c0.571,0,1.141-1.947,1.712-2.845s1.141-2.543,1.712-2.543
		c0.515,0,1.031,2.931,1.546,2.931c0.571,0,1.141-4.719,1.712-7.413c0.552-2.607,1.104-8.448,1.657-8.448
		c0.571,0,1.141,0.821,1.712,1.379c0.552,0.54,1.104,1.466,1.657,1.896c0.571,0.445,1.141,0.488,1.712,0.69
		c0.571,0.201,1.141,0.517,1.712,0.517c0.552,0,1.104-0.043,1.657-0.043c0.571,0,1.141,4.534,1.712,7.327
		c0.552,2.703,1.104,6.815,1.657,9.094c0.571,2.355,1.141,4.109,1.712,4.655c0.571,0.546,1.141,0.819,1.712,0.819
		c0.515,0,1.031-4.892,1.546-7.715c0.571-3.126,1.141-7.707,1.712-10.301c0.552-2.51,1.104-5.172,1.657-5.172
		c0.571,0,1.141,5.819,1.712,5.819c0.552,0,1.104-0.603,1.657-0.603c0.571,0,1.141,2.026,1.712,3.448s1.141,3.845,1.712,5.086
		c0.552,1.201,1.104,2.327,1.657,2.327c0.571,0,1.141-0.776,1.712-0.776c0.552,0,1.104,0.431,1.657,0.431
		c0.571,0,1.141-1.724,1.712-1.724c0.571,0,1.141,2.936,1.712,4.957c0.534,1.89,1.068,3.812,1.602,6.638
		c0.571,3.02,1.141,9.827,1.712,11.163c0.552,1.293,1.104,1.94,1.657,1.94c0.571,0,1.141-2.608,1.712-3.534
		c0.552-0.897,1.104-1.983,1.657-1.983c0.571,0,1.141,0.388,1.712,0.388s1.141-0.345,1.712-0.345c0.552,0,1.104,0.072,1.657,0.215
		c0.571,0.148,1.141,1.379,1.712,1.379c0.552,0,1.104-2.499,1.657-4.483c0.571-2.049,1.141-5.172,1.712-7.715
		c0.571-2.543,1.141-4.285,1.712-7.543c0.515-2.942,1.031-10.646,1.546-10.646c0.571,0,1.141,0,1.712,0
		c0.552,0,1.104-5.565,1.657-7.284c0.571-1.777,1.141-2.023,1.712-3.06c0.552-1.004,1.104-2.56,1.657-3.06
		c0.571-0.517,1.141-0.259,1.712-0.776c0.571-0.517,1.141-1.647,1.712-3.017c0.552-1.326,1.104-3.278,1.657-5
		c0.571-1.78,1.141-5.517,1.712-5.517c0.552,0,1.104,1.486,1.657,2.069c0.571,0.602,1.141,1.465,1.712,1.465
		c0.571,0,1.141-3.261,1.712-9.784c0.515-5.891,1.031-17.147,1.546-28.404"/>
</g>
<style>
#g-gas_prices-Gas-mobile-Interactions-img rect, #g-gas_prices-Gas-mobile-Interactions-img circle, #g-gas_prices-Gas-mobile-Interactions-img path, #g-gas_prices-Gas-mobile-Interactions-img line, #g-gas_prices-Gas-mobile-Interactions-img polyline, #g-gas_prices-Gas-mobile-Interactions-img polygon { vector-effect: non-scaling-stroke; }
</style>
</svg>

